<svg width="422" height="80" viewBox="0 0 422 80" fill="none" xmlns="http://www.w3.org/2000/svg">
<path d="M52.0176 33.5918L41.666 43.9951C41.1484 42.5459 40.4411 41.252 39.5439 40.1133C38.6468 38.9401 37.6289 37.9567 36.4902 37.1631C35.3861 36.3695 34.1784 35.7656 32.8672 35.3516C31.556 34.9375 30.2103 34.7305 28.8301 34.7305C26.8978 34.7305 25.069 35.1273 23.3438 35.9209C21.653 36.7145 20.1693 37.8359 18.8926 39.2852C17.6504 40.6999 16.667 42.3906 15.9424 44.3574C15.2178 46.3242 14.8555 48.498 14.8555 50.8789C14.8555 52.8112 15.2178 54.6227 15.9424 56.3135C16.667 58.0042 17.6504 59.488 18.8926 60.7646C20.1693 62.0413 21.653 63.042 23.3438 63.7666C25.069 64.4912 26.8978 64.8535 28.8301 64.8535C30.2103 64.8535 31.5387 64.6637 32.8154 64.2842C34.0921 63.9046 35.2826 63.3698 36.3867 62.6797C37.5254 61.9551 38.526 61.0924 39.3887 60.0918C40.2858 59.0566 41.0104 57.918 41.5625 56.6758L51.9141 67.0791C50.6029 68.9424 49.0846 70.6159 47.3594 72.0996C45.6686 73.5833 43.8226 74.8428 41.8213 75.8779C39.8545 76.9131 37.7669 77.6895 35.5586 78.207C33.3848 78.7591 31.1419 79.0352 28.8301 79.0352C24.931 79.0352 21.2562 78.3105 17.8057 76.8613C14.3896 75.3776 11.3877 73.359 8.7998 70.8057C6.24642 68.2523 4.22786 65.2676 2.74414 61.8516C1.26042 58.4355 0.518555 54.778 0.518555 50.8789C0.518555 46.6348 1.26042 42.6667 2.74414 38.9746C4.22786 35.2826 6.24642 32.0736 8.7998 29.3477C11.3877 26.5872 14.3896 24.4134 17.8057 22.8262C21.2562 21.2389 24.931 20.4453 28.8301 20.4453C31.1419 20.4453 33.402 20.7386 35.6104 21.3252C37.8532 21.9118 39.9753 22.7744 41.9766 23.9131C44.0124 25.0173 45.8757 26.3802 47.5664 28.002C49.2917 29.6237 50.7754 31.487 52.0176 33.5918ZM111.694 49.792C111.694 53.9326 110.952 57.7972 109.469 61.3857C107.985 64.9398 105.966 68.028 103.413 70.6504C100.86 73.2383 97.8577 75.2913 94.4072 76.8096C90.9912 78.2933 87.3164 79.0352 83.3828 79.0352C79.4837 79.0352 75.8089 78.2933 72.3584 76.8096C68.9424 75.2913 65.9404 73.2383 63.3525 70.6504C60.7992 68.028 58.7806 64.9398 57.2969 61.3857C55.8132 57.7972 55.0713 53.9326 55.0713 49.792C55.0713 45.5824 55.8132 41.6833 57.2969 38.0947C58.7806 34.5062 60.7992 31.418 63.3525 28.8301C65.9404 26.2077 68.9424 24.1546 72.3584 22.6709C75.8089 21.1872 79.4837 20.4453 83.3828 20.4453C87.3164 20.4453 90.9912 21.1527 94.4072 22.5674C97.8577 23.9476 100.86 25.9316 103.413 28.5195C105.966 31.0729 107.985 34.1611 109.469 37.7842C110.952 41.3727 111.694 45.3753 111.694 49.792ZM97.4609 49.792C97.4609 47.5146 97.0814 45.4616 96.3223 43.6328C95.5977 41.7695 94.597 40.1823 93.3203 38.8711C92.0436 37.5254 90.5426 36.5075 88.8174 35.8174C87.1266 35.0928 85.3151 34.7305 83.3828 34.7305C81.4505 34.7305 79.6217 35.0928 77.8965 35.8174C76.2057 36.5075 74.722 37.5254 73.4453 38.8711C72.2031 40.1823 71.2197 41.7695 70.4951 43.6328C69.7705 45.4616 69.4082 47.5146 69.4082 49.792C69.4082 51.9313 69.7705 53.9154 70.4951 55.7441C71.2197 57.5729 72.2031 59.1602 73.4453 60.5059C74.722 61.8516 76.2057 62.9212 77.8965 63.7148C79.6217 64.474 81.4505 64.8535 83.3828 64.8535C85.3151 64.8535 87.1266 64.4912 88.8174 63.7666C90.5426 63.042 92.0436 62.0241 93.3203 60.7129C94.597 59.4017 95.5977 57.8145 96.3223 55.9512C97.0814 54.0879 97.4609 52.0348 97.4609 49.792ZM173.079 78H169.663L164.177 70.3916C162.831 71.5993 161.399 72.738 159.881 73.8076C158.397 74.8428 156.827 75.7572 155.171 76.5508C153.515 77.3099 151.807 77.9137 150.047 78.3623C148.322 78.8109 146.562 79.0352 144.768 79.0352C140.868 79.0352 137.194 78.3105 133.743 76.8613C130.327 75.3776 127.325 73.3418 124.737 70.7539C122.184 68.1315 120.165 65.0433 118.682 61.4893C117.198 57.9007 116.456 54.0016 116.456 49.792C116.456 45.6169 117.198 41.735 118.682 38.1465C120.165 34.5579 122.184 31.4525 124.737 28.8301C127.325 26.2077 130.327 24.1546 133.743 22.6709C137.194 21.1872 140.868 20.4453 144.768 20.4453C146.01 20.4453 147.286 20.5488 148.598 20.7559C149.943 20.9629 151.237 21.3079 152.479 21.791C153.756 22.2396 154.947 22.8434 156.051 23.6025C157.155 24.3617 158.087 25.2933 158.846 26.3975V0.518555H173.079V78ZM158.846 49.792C158.846 47.8597 158.466 45.9964 157.707 44.2021C156.982 42.3734 155.982 40.7689 154.705 39.3887C153.428 37.974 151.927 36.8525 150.202 36.0244C148.511 35.1618 146.7 34.7305 144.768 34.7305C142.835 34.7305 141.007 35.0755 139.281 35.7656C137.59 36.4557 136.107 37.4564 134.83 38.7676C133.588 40.0443 132.604 41.6143 131.88 43.4775C131.155 45.3408 130.793 47.4456 130.793 49.792C130.793 51.8278 131.155 53.7601 131.88 55.5889C132.604 57.4176 133.588 59.0221 134.83 60.4023C136.107 61.7826 137.59 62.8695 139.281 63.6631C141.007 64.4567 142.835 64.8535 144.768 64.8535C146.7 64.8535 148.511 64.4395 150.202 63.6113C151.927 62.7487 153.428 61.6273 154.705 60.2471C155.982 58.8324 156.982 57.2279 157.707 55.4336C158.466 53.6048 158.846 51.7243 158.846 49.792ZM205.945 64.4395C206.497 64.612 207.049 64.7327 207.602 64.8018C208.154 64.8363 208.706 64.8535 209.258 64.8535C210.638 64.8535 211.966 64.6637 213.243 64.2842C214.52 63.9046 215.71 63.3698 216.814 62.6797C217.953 61.9551 218.954 61.0924 219.816 60.0918C220.714 59.0566 221.438 57.918 221.99 56.6758L232.342 67.0791C231.031 68.9424 229.512 70.6159 227.787 72.0996C226.096 73.5833 224.25 74.8428 222.249 75.8779C220.282 76.9131 218.195 77.6895 215.986 78.207C213.812 78.7591 211.57 79.0352 209.258 79.0352C205.359 79.0352 201.684 78.3105 198.233 76.8613C194.817 75.4121 191.815 73.3936 189.228 70.8057C186.674 68.2178 184.656 65.1468 183.172 61.5928C181.688 58.0042 180.946 54.0706 180.946 49.792C180.946 45.4098 181.688 41.4072 183.172 37.7842C184.656 34.1611 186.674 31.0729 189.228 28.5195C191.815 25.9661 194.817 23.9821 198.233 22.5674C201.684 21.1527 205.359 20.4453 209.258 20.4453C211.57 20.4453 213.83 20.7214 216.038 21.2734C218.246 21.8255 220.334 22.6191 222.301 23.6543C224.302 24.6895 226.165 25.9661 227.891 27.4844C229.616 28.9681 231.134 30.6416 232.445 32.5049L205.945 64.4395ZM213.191 35.2998C212.536 35.0583 211.88 34.903 211.225 34.834C210.604 34.765 209.948 34.7305 209.258 34.7305C207.326 34.7305 205.497 35.0928 203.771 35.8174C202.081 36.5075 200.597 37.5081 199.32 38.8193C198.078 40.1305 197.095 41.7178 196.37 43.5811C195.646 45.4098 195.283 47.4801 195.283 49.792C195.283 50.3096 195.3 50.8962 195.335 51.5518C195.404 52.2074 195.49 52.8802 195.594 53.5703C195.732 54.2259 195.887 54.8643 196.06 55.4854C196.232 56.1064 196.456 56.6585 196.732 57.1416L213.191 35.2998ZM309.564 57.9697C309.564 60.8682 309.012 63.6113 307.908 66.1992C306.804 68.7526 305.286 70.9782 303.354 72.876C301.456 74.7738 299.213 76.2747 296.625 77.3789C294.072 78.4831 291.328 79.0352 288.396 79.0352C285.773 79.0352 283.254 78.5866 280.839 77.6895C278.424 76.7578 276.232 75.4121 274.266 73.6523C272.333 75.4121 270.16 76.7578 267.744 77.6895C265.363 78.5866 262.844 79.0352 260.188 79.0352C257.255 79.0352 254.511 78.4831 251.958 77.3789C249.405 76.2747 247.162 74.7738 245.229 72.876C243.332 70.9782 241.831 68.7526 240.727 66.1992C239.622 63.6113 239.07 60.8682 239.07 57.9697V22.6709H253.2V57.9697C253.2 58.9359 253.373 59.8503 253.718 60.7129C254.097 61.541 254.598 62.2829 255.219 62.9385C255.874 63.5596 256.616 64.0599 257.444 64.4395C258.307 64.7845 259.221 64.957 260.188 64.957C261.154 64.957 262.068 64.7845 262.931 64.4395C263.793 64.0599 264.552 63.5596 265.208 62.9385C265.864 62.2829 266.364 61.541 266.709 60.7129C267.089 59.8503 267.278 58.9359 267.278 57.9697V22.6709H281.356V57.9697C281.356 58.9359 281.546 59.8503 281.926 60.7129C282.305 61.541 282.806 62.2829 283.427 62.9385C284.082 63.5596 284.824 64.0599 285.652 64.4395C286.515 64.7845 287.429 64.957 288.396 64.957C289.362 64.957 290.276 64.7845 291.139 64.4395C292.001 64.0599 292.743 63.5596 293.364 62.9385C294.02 62.2829 294.537 61.541 294.917 60.7129C295.297 59.8503 295.486 58.9359 295.486 57.9697V22.6709H309.564V57.9697ZM373.485 78H370.069L364.583 70.3916C363.237 71.5993 361.805 72.738 360.287 73.8076C358.803 74.8428 357.233 75.7572 355.577 76.5508C353.921 77.3099 352.213 77.9137 350.453 78.3623C348.728 78.8109 346.968 79.0352 345.174 79.0352C341.275 79.0352 337.6 78.3796 334.149 77.0684C330.733 75.7572 327.731 73.8594 325.144 71.375C322.59 68.8561 320.572 65.7852 319.088 62.1621C317.604 58.5391 316.862 54.4157 316.862 49.792C316.862 45.4788 317.604 41.528 319.088 37.9395C320.572 34.3164 322.59 31.2109 325.144 28.623C327.731 26.0352 330.733 24.0339 334.149 22.6191C337.6 21.1699 341.275 20.4453 345.174 20.4453C346.968 20.4453 348.745 20.6696 350.505 21.1182C352.265 21.5667 353.973 22.1878 355.629 22.9814C357.285 23.7751 358.855 24.7067 360.339 25.7764C361.857 26.846 363.272 28.002 364.583 29.2441L370.069 22.6709H373.485V78ZM359.252 49.792C359.252 47.8597 358.872 45.9964 358.113 44.2021C357.389 42.3734 356.388 40.7689 355.111 39.3887C353.835 37.974 352.334 36.8525 350.608 36.0244C348.918 35.1618 347.106 34.7305 345.174 34.7305C343.242 34.7305 341.413 35.0583 339.688 35.7139C337.997 36.3695 336.513 37.3356 335.236 38.6123C333.994 39.889 333.011 41.4762 332.286 43.374C331.562 45.2373 331.199 47.3766 331.199 49.792C331.199 52.2074 331.562 54.3639 332.286 56.2617C333.011 58.125 333.994 59.695 335.236 60.9717C336.513 62.2484 337.997 63.2145 339.688 63.8701C341.413 64.5257 343.242 64.8535 345.174 64.8535C347.106 64.8535 348.918 64.4395 350.608 63.6113C352.334 62.7487 353.835 61.6273 355.111 60.2471C356.388 58.8324 357.389 57.2279 358.113 55.4336C358.872 53.6048 359.252 51.7243 359.252 49.792ZM398.433 78H384.303V22.5674H387.719L392.377 29.1406C394.654 27.0703 397.242 25.4831 400.141 24.3789C403.039 23.2402 406.041 22.6709 409.146 22.6709H421.62V36.749H409.146C407.663 36.749 406.265 37.0251 404.954 37.5771C403.643 38.1292 402.504 38.8883 401.538 39.8545C400.572 40.8206 399.813 41.9593 399.261 43.2705C398.709 44.5817 398.433 45.9792 398.433 47.4629V78Z" fill="white"/>
</svg>
