<svg width="214" height="78" viewBox="0 0 214 78" fill="none" xmlns="http://www.w3.org/2000/svg">
<path d="M76.8252 39.2002C76.8252 42.7197 76.3594 46.1185 75.4277 49.3965C74.5306 52.64 73.2539 55.6937 71.5977 58.5576C69.9414 61.387 67.9401 63.9749 65.5938 66.3213C63.2474 68.6676 60.6595 70.6862 57.8301 72.377C55.0007 74.0332 51.9469 75.3099 48.6689 76.207C45.391 77.1387 41.9922 77.6045 38.4727 77.6045C34.9531 77.6045 31.5544 77.1387 28.2764 76.207C25.0329 75.3099 21.9792 74.0332 19.1152 72.377C16.2858 70.6862 13.6979 68.6676 11.3516 66.3213C9.00521 63.9749 6.98665 61.387 5.2959 58.5576C3.63965 55.6937 2.3457 52.64 1.41406 49.3965C0.516927 46.1185 0.0683594 42.7197 0.0683594 39.2002C0.0683594 35.6807 0.516927 32.2819 1.41406 29.0039C2.3457 25.7259 3.63965 22.6722 5.2959 19.8428C6.98665 17.0133 9.00521 14.4255 11.3516 12.0791C13.6979 9.73275 16.2858 7.73145 19.1152 6.0752C21.9792 4.41895 25.0329 3.14225 28.2764 2.24512C31.5544 1.31348 34.9531 0.847656 38.4727 0.847656C41.9922 0.847656 45.391 1.31348 48.6689 2.24512C51.9469 3.14225 55.0007 4.41895 57.8301 6.0752C60.6595 7.73145 63.2474 9.73275 65.5938 12.0791C67.9401 14.4255 69.9414 17.0133 71.5977 19.8428C73.2539 22.6722 74.5306 25.7259 75.4277 29.0039C76.3594 32.2819 76.8252 35.6807 76.8252 39.2002ZM62.0742 39.2002C62.0742 35.9567 61.4531 32.903 60.2109 30.0391C58.9688 27.1406 57.278 24.639 55.1387 22.5342C53.0339 20.3949 50.5322 18.7041 47.6338 17.4619C44.7699 16.2197 41.7161 15.5986 38.4727 15.5986C35.1947 15.5986 32.1237 16.2197 29.2598 17.4619C26.3958 18.7041 23.8942 20.3949 21.7549 22.5342C19.6156 24.639 17.9248 27.1406 16.6826 30.0391C15.4404 32.903 14.8193 35.9567 14.8193 39.2002C14.8193 42.4437 15.4404 45.4974 16.6826 48.3613C17.9248 51.1908 19.6156 53.6751 21.7549 55.8145C23.8942 57.9538 26.3958 59.6445 29.2598 60.8867C32.1237 62.1289 35.1947 62.75 38.4727 62.75C41.7161 62.75 44.7699 62.1289 47.6338 60.8867C50.5322 59.6445 53.0339 57.9538 55.1387 55.8145C57.278 53.6751 58.9688 51.1908 60.2109 48.3613C61.4531 45.4974 62.0742 42.4437 62.0742 39.2002ZM145.87 68.3916C142.42 71.359 138.555 73.6364 134.276 75.2236C129.998 76.8109 125.564 77.6045 120.975 77.6045C117.455 77.6045 114.056 77.1387 110.778 76.207C107.535 75.3099 104.481 74.0332 101.617 72.377C98.7878 70.6862 96.1999 68.6676 93.8535 66.3213C91.5072 63.9749 89.4886 61.387 87.7979 58.5576C86.1416 55.6937 84.8477 52.64 83.916 49.3965C83.0189 46.1185 82.5703 42.7197 82.5703 39.2002C82.5703 35.6807 83.0189 32.2819 83.916 29.0039C84.8477 25.7259 86.1416 22.6722 87.7979 19.8428C89.4886 16.9788 91.5072 14.3737 93.8535 12.0273C96.1999 9.68099 98.7878 7.67969 101.617 6.02344C104.481 4.33268 107.535 3.03874 110.778 2.1416C114.056 1.20996 117.455 0.744141 120.975 0.744141C125.564 0.744141 129.998 1.53776 134.276 3.125C138.555 4.67773 142.42 6.95508 145.87 9.95703L138.003 22.8965C135.829 20.5501 133.258 18.7559 130.291 17.5137C127.324 16.237 124.218 15.5986 120.975 15.5986C117.697 15.5986 114.626 16.2197 111.762 17.4619C108.898 18.7041 106.396 20.3949 104.257 22.5342C102.118 24.639 100.427 27.1406 99.1846 30.0391C97.9424 32.903 97.3213 35.9567 97.3213 39.2002C97.3213 42.4437 97.9424 45.4974 99.1846 48.3613C100.427 51.1908 102.118 53.6751 104.257 55.8145C106.396 57.9538 108.898 59.6445 111.762 60.8867C114.626 62.1289 117.697 62.75 120.975 62.75C124.218 62.75 127.324 62.1289 130.291 60.8867C133.258 59.61 135.829 57.7985 138.003 55.4521L145.87 68.3916ZM169.368 16.6338V46.3428H184.223C186.258 46.3428 188.174 45.9632 189.968 45.2041C191.762 44.4105 193.332 43.3408 194.678 41.9951C196.023 40.6494 197.076 39.0794 197.835 37.2852C198.629 35.4564 199.025 33.5241 199.025 31.4883C199.025 29.4525 198.629 27.5374 197.835 25.7432C197.076 23.9144 196.023 22.3271 194.678 20.9814C193.332 19.6357 191.762 18.5833 189.968 17.8242C188.174 17.0306 186.258 16.6338 184.223 16.6338H169.368ZM169.368 76H154.514V1.7793H184.223C186.949 1.7793 189.571 2.1416 192.09 2.86621C194.609 3.55632 196.955 4.55697 199.129 5.86816C201.337 7.14486 203.339 8.69759 205.133 10.5264C206.962 12.3206 208.514 14.3219 209.791 16.5303C211.102 18.7386 212.103 21.1022 212.793 23.6211C213.518 26.14 213.88 28.7624 213.88 31.4883C213.88 34.0417 213.552 36.526 212.896 38.9414C212.275 41.3568 211.361 43.6514 210.153 45.8252C208.98 47.999 207.531 50.0003 205.806 51.8291C204.08 53.6579 202.148 55.2451 200.009 56.5908L208.238 76H192.452L185.982 61.042L169.368 61.1455V76Z" fill="white"/>
</svg>
