<svg width="331" height="80" viewBox="0 0 331 80" fill="none" xmlns="http://www.w3.org/2000/svg">
<path d="M57.4297 78H54.0137L48.5273 70.3916C47.1816 71.5993 45.7497 72.738 44.2314 73.8076C42.7477 74.8428 41.1777 75.7572 39.5215 76.5508C37.8652 77.3099 36.1572 77.9137 34.3975 78.3623C32.6722 78.8109 30.9124 79.0352 29.1182 79.0352C25.2191 79.0352 21.5443 78.3105 18.0938 76.8613C14.6777 75.3776 11.6758 73.3418 9.08789 70.7539C6.53451 68.1315 4.51595 65.0433 3.03223 61.4893C1.5485 57.9007 0.806641 54.0016 0.806641 49.792C0.806641 45.6169 1.5485 41.735 3.03223 38.1465C4.51595 34.5579 6.53451 31.4525 9.08789 28.8301C11.6758 26.2077 14.6777 24.1546 18.0938 22.6709C21.5443 21.1872 25.2191 20.4453 29.1182 20.4453C30.3604 20.4453 31.637 20.5488 32.9482 20.7559C34.2939 20.9629 35.5879 21.3079 36.8301 21.791C38.1068 22.2396 39.2972 22.8434 40.4014 23.6025C41.5055 24.3617 42.4372 25.2933 43.1963 26.3975V0.518555H57.4297V78ZM43.1963 49.792C43.1963 47.8597 42.8167 45.9964 42.0576 44.2021C41.333 42.3734 40.3324 40.7689 39.0557 39.3887C37.779 37.974 36.278 36.8525 34.5527 36.0244C32.862 35.1618 31.0505 34.7305 29.1182 34.7305C27.1859 34.7305 25.3571 35.0755 23.6318 35.7656C21.9411 36.4557 20.4574 37.4564 19.1807 38.7676C17.9385 40.0443 16.9551 41.6143 16.2305 43.4775C15.5059 45.3408 15.1436 47.4456 15.1436 49.792C15.1436 51.8278 15.5059 53.7601 16.2305 55.5889C16.9551 57.4176 17.9385 59.0221 19.1807 60.4023C20.4574 61.7826 21.9411 62.8695 23.6318 63.6631C25.3571 64.4567 27.1859 64.8535 29.1182 64.8535C31.0505 64.8535 32.862 64.4395 34.5527 63.6113C36.278 62.7487 37.779 61.6273 39.0557 60.2471C40.3324 58.8324 41.333 57.2279 42.0576 55.4336C42.8167 53.6048 43.1963 51.7243 43.1963 49.792ZM121.92 78H118.504L113.018 70.3916C111.672 71.5993 110.24 72.738 108.722 73.8076C107.238 74.8428 105.668 75.7572 104.012 76.5508C102.355 77.3099 100.647 77.9137 98.8877 78.3623C97.1624 78.8109 95.4027 79.0352 93.6084 79.0352C89.7093 79.0352 86.0345 78.3796 82.584 77.0684C79.168 75.7572 76.166 73.8594 73.5781 71.375C71.0247 68.8561 69.0062 65.7852 67.5225 62.1621C66.0387 58.5391 65.2969 54.4157 65.2969 49.792C65.2969 45.4788 66.0387 41.528 67.5225 37.9395C69.0062 34.3164 71.0247 31.2109 73.5781 28.623C76.166 26.0352 79.168 24.0339 82.584 22.6191C86.0345 21.1699 89.7093 20.4453 93.6084 20.4453C95.4027 20.4453 97.1797 20.6696 98.9395 21.1182C100.699 21.5667 102.407 22.1878 104.063 22.9814C105.72 23.7751 107.29 24.7067 108.773 25.7764C110.292 26.846 111.706 28.002 113.018 29.2441L118.504 22.6709H121.92V78ZM107.687 49.792C107.687 47.8597 107.307 45.9964 106.548 44.2021C105.823 42.3734 104.823 40.7689 103.546 39.3887C102.269 37.974 100.768 36.8525 99.043 36.0244C97.3522 35.1618 95.5407 34.7305 93.6084 34.7305C91.6761 34.7305 89.8473 35.0583 88.1221 35.7139C86.4313 36.3695 84.9476 37.3356 83.6709 38.6123C82.4287 39.889 81.4453 41.4762 80.7207 43.374C79.9961 45.2373 79.6338 47.3766 79.6338 49.792C79.6338 52.2074 79.9961 54.3639 80.7207 56.2617C81.4453 58.125 82.4287 59.695 83.6709 60.9717C84.9476 62.2484 86.4313 63.2145 88.1221 63.8701C89.8473 64.5257 91.6761 64.8535 93.6084 64.8535C95.5407 64.8535 97.3522 64.4395 99.043 63.6113C100.768 62.7487 102.269 61.6273 103.546 60.2471C104.823 58.8324 105.823 57.2279 106.548 55.4336C107.307 53.6048 107.687 51.7243 107.687 49.792ZM149.093 18.6338V48.3428H163.947C165.983 48.3428 167.898 47.9632 169.692 47.2041C171.487 46.4105 173.057 45.3408 174.402 43.9951C175.748 42.6494 176.8 41.0794 177.56 39.2852C178.353 37.4564 178.75 35.5241 178.75 33.4883C178.75 31.4525 178.353 29.5374 177.56 27.7432C176.8 25.9144 175.748 24.3271 174.402 22.9814C173.057 21.6357 171.487 20.5833 169.692 19.8242C167.898 19.0306 165.983 18.6338 163.947 18.6338H149.093ZM149.093 78H134.238V3.7793H163.947C166.673 3.7793 169.296 4.1416 171.814 4.86621C174.333 5.55632 176.68 6.55697 178.854 7.86816C181.062 9.14486 183.063 10.6976 184.857 12.5264C186.686 14.3206 188.239 16.3219 189.516 18.5303C190.827 20.7386 191.827 23.1022 192.518 25.6211C193.242 28.14 193.604 30.7624 193.604 33.4883C193.604 36.0417 193.277 38.526 192.621 40.9414C192 43.3568 191.086 45.6514 189.878 47.8252C188.705 49.999 187.256 52.0003 185.53 53.8291C183.805 55.6579 181.873 57.2451 179.733 58.5908L187.963 78H172.177L165.707 63.042L149.093 63.1455V78ZM271.862 78H257.784V42.8047C257.784 41.8385 257.594 40.9242 257.215 40.0615C256.87 39.1989 256.369 38.4398 255.714 37.7842C255.058 37.1286 254.299 36.6283 253.437 36.2832C252.574 35.9036 251.66 35.7139 250.693 35.7139C249.727 35.7139 248.813 35.9036 247.95 36.2832C247.122 36.6283 246.38 37.1286 245.725 37.7842C245.104 38.4398 244.603 39.1989 244.224 40.0615C243.879 40.9242 243.706 41.8385 243.706 42.8047V78H229.576V42.8047C229.576 41.8385 229.386 40.9242 229.007 40.0615C228.662 39.1989 228.161 38.4398 227.506 37.7842C226.85 37.1286 226.091 36.6283 225.229 36.2832C224.366 35.9036 223.451 35.7139 222.485 35.7139C221.519 35.7139 220.605 35.9036 219.742 36.2832C218.914 36.6283 218.172 37.1286 217.517 37.7842C216.896 38.4398 216.395 39.1989 216.016 40.0615C215.671 40.9242 215.498 41.8385 215.498 42.8047V78H201.368V22.5674H204.784L208.614 26.8115C210.581 25.1553 212.738 23.8786 215.084 22.9814C217.465 22.0498 219.932 21.584 222.485 21.584C225.073 21.584 227.592 22.0671 230.042 23.0332C232.526 23.9993 234.7 25.6729 236.563 28.0537C237.426 26.8805 238.41 25.8799 239.514 25.0518C240.618 24.2236 241.774 23.5508 242.981 23.0332C244.224 22.5156 245.5 22.1533 246.812 21.9463C248.123 21.7048 249.417 21.584 250.693 21.584C253.626 21.584 256.369 22.1361 258.923 23.2402C261.511 24.3444 263.754 25.8626 265.651 27.7949C267.584 29.6927 269.102 31.9355 270.206 34.5234C271.31 37.1113 271.862 39.8717 271.862 42.8047V78ZM304.263 64.4395C304.815 64.612 305.367 64.7327 305.919 64.8018C306.471 64.8363 307.023 64.8535 307.575 64.8535C308.955 64.8535 310.284 64.6637 311.561 64.2842C312.837 63.9046 314.028 63.3698 315.132 62.6797C316.271 61.9551 317.271 61.0924 318.134 60.0918C319.031 59.0566 319.756 57.918 320.308 56.6758L330.659 67.0791C329.348 68.9424 327.83 70.6159 326.104 72.0996C324.414 73.5833 322.568 74.8428 320.566 75.8779C318.6 76.9131 316.512 77.6895 314.304 78.207C312.13 78.7591 309.887 79.0352 307.575 79.0352C303.676 79.0352 300.001 78.3105 296.551 76.8613C293.135 75.4121 290.133 73.3936 287.545 70.8057C284.992 68.2178 282.973 65.1468 281.489 61.5928C280.006 58.0042 279.264 54.0706 279.264 49.792C279.264 45.4098 280.006 41.4072 281.489 37.7842C282.973 34.1611 284.992 31.0729 287.545 28.5195C290.133 25.9661 293.135 23.9821 296.551 22.5674C300.001 21.1527 303.676 20.4453 307.575 20.4453C309.887 20.4453 312.147 20.7214 314.355 21.2734C316.564 21.8255 318.651 22.6191 320.618 23.6543C322.619 24.6895 324.483 25.9661 326.208 27.4844C327.933 28.9681 329.451 30.6416 330.763 32.5049L304.263 64.4395ZM311.509 35.2998C310.853 35.0583 310.198 34.903 309.542 34.834C308.921 34.765 308.265 34.7305 307.575 34.7305C305.643 34.7305 303.814 35.0928 302.089 35.8174C300.398 36.5075 298.914 37.5081 297.638 38.8193C296.396 40.1305 295.412 41.7178 294.688 43.5811C293.963 45.4098 293.601 47.4801 293.601 49.792C293.601 50.3096 293.618 50.8962 293.652 51.5518C293.721 52.2074 293.808 52.8802 293.911 53.5703C294.049 54.2259 294.204 54.8643 294.377 55.4854C294.549 56.1064 294.774 56.6585 295.05 57.1416L311.509 35.2998Z" fill="white"/>
</svg>
