<svg width="462" height="100" viewBox="0 0 462 100" fill="none" xmlns="http://www.w3.org/2000/svg">
<path d="M52.2803 33.5918L41.9287 43.9951C41.4111 42.5459 40.7038 41.252 39.8066 40.1133C38.9095 38.9401 37.8916 37.9567 36.7529 37.1631C35.6488 36.3695 34.4411 35.7656 33.1299 35.3516C31.8187 34.9375 30.473 34.7305 29.0928 34.7305C27.1605 34.7305 25.3317 35.1273 23.6064 35.9209C21.9157 36.7145 20.432 37.8359 19.1553 39.2852C17.9131 40.6999 16.9297 42.3906 16.2051 44.3574C15.4805 46.3242 15.1182 48.498 15.1182 50.8789C15.1182 52.8112 15.4805 54.6227 16.2051 56.3135C16.9297 58.0042 17.9131 59.488 19.1553 60.7646C20.432 62.0413 21.9157 63.042 23.6064 63.7666C25.3317 64.4912 27.1605 64.8535 29.0928 64.8535C30.473 64.8535 31.8014 64.6637 33.0781 64.2842C34.3548 63.9046 35.5452 63.3698 36.6494 62.6797C37.7881 61.9551 38.7887 61.0924 39.6514 60.0918C40.5485 59.0566 41.2731 57.918 41.8252 56.6758L52.1768 67.0791C50.8656 68.9424 49.3473 70.6159 47.6221 72.0996C45.9313 73.5833 44.0853 74.8428 42.084 75.8779C40.1172 76.9131 38.0296 77.6895 35.8213 78.207C33.6475 78.7591 31.4046 79.0352 29.0928 79.0352C25.1937 79.0352 21.5189 78.3105 18.0684 76.8613C14.6523 75.3776 11.6504 73.359 9.0625 70.8057C6.50911 68.2523 4.49056 65.2676 3.00684 61.8516C1.52311 58.4355 0.78125 54.778 0.78125 50.8789C0.78125 46.6348 1.52311 42.6667 3.00684 38.9746C4.49056 35.2826 6.50911 32.0736 9.0625 29.3477C11.6504 26.5872 14.6523 24.4134 18.0684 22.8262C21.5189 21.2389 25.1937 20.4453 29.0928 20.4453C31.4046 20.4453 33.6647 20.7386 35.873 21.3252C38.1159 21.9118 40.238 22.7744 42.2393 23.9131C44.2751 25.0173 46.1383 26.3802 47.8291 28.002C49.5544 29.6237 51.0381 31.487 52.2803 33.5918ZM73.3457 78H59.2158V0.518555H73.3457V25C75.0365 23.7233 76.779 22.8262 78.5732 22.3086C80.3675 21.7565 82.1963 21.4805 84.0596 21.4805C87.4756 21.4805 90.6846 22.1361 93.6865 23.4473C96.6885 24.724 99.2936 26.501 101.502 28.7783C103.745 31.0212 105.505 33.6608 106.781 36.6973C108.092 39.6992 108.748 42.9082 108.748 46.3242V78H94.5146V46.3242H94.6182C94.6182 44.875 94.3421 43.512 93.79 42.2354C93.238 40.9242 92.4788 39.7855 91.5127 38.8193C90.5465 37.8532 89.4251 37.0941 88.1484 36.542C86.8717 35.9899 85.5088 35.7139 84.0596 35.7139C82.5758 35.7139 81.1784 35.9899 79.8672 36.542C78.556 37.0941 77.4173 37.8532 76.4512 38.8193C75.485 39.7855 74.7259 40.9242 74.1738 42.2354C73.6217 43.512 73.3457 44.875 73.3457 46.3242V78ZM172.514 78H169.098L163.611 70.3916C162.266 71.5993 160.834 72.738 159.315 73.8076C157.832 74.8428 156.262 75.7572 154.605 76.5508C152.949 77.3099 151.241 77.9137 149.481 78.3623C147.756 78.8109 145.996 79.0352 144.202 79.0352C140.303 79.0352 136.628 78.3796 133.178 77.0684C129.762 75.7572 126.76 73.8594 124.172 71.375C121.618 68.8561 119.6 65.7852 118.116 62.1621C116.632 58.5391 115.891 54.4157 115.891 49.792C115.891 45.4788 116.632 41.528 118.116 37.9395C119.6 34.3164 121.618 31.2109 124.172 28.623C126.76 26.0352 129.762 24.0339 133.178 22.6191C136.628 21.1699 140.303 20.4453 144.202 20.4453C145.996 20.4453 147.773 20.6696 149.533 21.1182C151.293 21.5667 153.001 22.1878 154.657 22.9814C156.313 23.7751 157.883 24.7067 159.367 25.7764C160.885 26.846 162.3 28.002 163.611 29.2441L169.098 22.6709H172.514V78ZM158.28 49.792C158.28 47.8597 157.901 45.9964 157.142 44.2021C156.417 42.3734 155.416 40.7689 154.14 39.3887C152.863 37.974 151.362 36.8525 149.637 36.0244C147.946 35.1618 146.134 34.7305 144.202 34.7305C142.27 34.7305 140.441 35.0583 138.716 35.7139C137.025 36.3695 135.541 37.3356 134.265 38.6123C133.022 39.889 132.039 41.4762 131.314 43.374C130.59 45.2373 130.228 47.3766 130.228 49.792C130.228 52.2074 130.59 54.3639 131.314 56.2617C132.039 58.125 133.022 59.695 134.265 60.9717C135.541 62.2484 137.025 63.2145 138.716 63.8701C140.441 64.5257 142.27 64.8535 144.202 64.8535C146.134 64.8535 147.946 64.4395 149.637 63.6113C151.362 62.7487 152.863 61.6273 154.14 60.2471C155.416 58.8324 156.417 57.2279 157.142 55.4336C157.901 53.6048 158.28 51.7243 158.28 49.792ZM197.564 78H183.331V0.518555H197.564V78ZM222.615 78H208.382V0.518555H222.615V78ZM255.481 64.4395C256.034 64.612 256.586 64.7327 257.138 64.8018C257.69 64.8363 258.242 64.8535 258.794 64.8535C260.174 64.8535 261.503 64.6637 262.779 64.2842C264.056 63.9046 265.246 63.3698 266.351 62.6797C267.489 61.9551 268.49 61.0924 269.353 60.0918C270.25 59.0566 270.974 57.918 271.526 56.6758L281.878 67.0791C280.567 68.9424 279.049 70.6159 277.323 72.0996C275.632 73.5833 273.786 74.8428 271.785 75.8779C269.818 76.9131 267.731 77.6895 265.522 78.207C263.349 78.7591 261.106 79.0352 258.794 79.0352C254.895 79.0352 251.22 78.3105 247.77 76.8613C244.354 75.4121 241.352 73.3936 238.764 70.8057C236.21 68.2178 234.192 65.1468 232.708 61.5928C231.224 58.0042 230.482 54.0706 230.482 49.792C230.482 45.4098 231.224 41.4072 232.708 37.7842C234.192 34.1611 236.21 31.0729 238.764 28.5195C241.352 25.9661 244.354 23.9821 247.77 22.5674C251.22 21.1527 254.895 20.4453 258.794 20.4453C261.106 20.4453 263.366 20.7214 265.574 21.2734C267.783 21.8255 269.87 22.6191 271.837 23.6543C273.838 24.6895 275.701 25.9661 277.427 27.4844C279.152 28.9681 280.67 30.6416 281.981 32.5049L255.481 64.4395ZM262.728 35.2998C262.072 35.0583 261.416 34.903 260.761 34.834C260.14 34.765 259.484 34.7305 258.794 34.7305C256.862 34.7305 255.033 35.0928 253.308 35.8174C251.617 36.5075 250.133 37.5081 248.856 38.8193C247.614 40.1305 246.631 41.7178 245.906 43.5811C245.182 45.4098 244.819 47.4801 244.819 49.792C244.819 50.3096 244.837 50.8962 244.871 51.5518C244.94 52.2074 245.026 52.8802 245.13 53.5703C245.268 54.2259 245.423 54.8643 245.596 55.4854C245.768 56.1064 245.993 56.6585 246.269 57.1416L262.728 35.2998ZM303.254 78H289.124V22.5674H292.54L297.198 27.9502C299.476 25.8799 302.046 24.2926 304.91 23.1885C307.809 22.0498 310.828 21.4805 313.968 21.4805C317.349 21.4805 320.541 22.1361 323.543 23.4473C326.545 24.724 329.167 26.501 331.41 28.7783C333.653 31.0212 335.413 33.6608 336.689 36.6973C338.001 39.6992 338.656 42.9082 338.656 46.3242V78H324.526V46.3242C324.526 44.875 324.25 43.512 323.698 42.2354C323.146 40.9242 322.387 39.7855 321.421 38.8193C320.455 37.8532 319.333 37.0941 318.057 36.542C316.78 35.9899 315.417 35.7139 313.968 35.7139C312.484 35.7139 311.087 35.9899 309.775 36.542C308.464 37.0941 307.326 37.8532 306.359 38.8193C305.393 39.7855 304.634 40.9242 304.082 42.2354C303.53 43.512 303.254 44.875 303.254 46.3242V78ZM388.188 49.792C388.188 47.8597 387.809 45.9964 387.05 44.2021C386.325 42.3734 385.325 40.7689 384.048 39.3887C382.771 37.974 381.27 36.8525 379.545 36.0244C377.854 35.1618 376.043 34.7305 374.11 34.7305C372.178 34.7305 370.349 35.0583 368.624 35.7139C366.933 36.3695 365.45 37.3356 364.173 38.6123C362.931 39.889 361.947 41.4762 361.223 43.374C360.498 45.2373 360.136 47.3766 360.136 49.792C360.136 52.1038 360.498 54.1914 361.223 56.0547C361.947 57.8835 362.931 59.4535 364.173 60.7646C365.45 62.0758 366.933 63.0938 368.624 63.8184C370.349 64.5085 372.178 64.8535 374.11 64.8535C376.043 64.8535 377.854 64.4395 379.545 63.6113C381.27 62.7487 382.771 61.6273 384.048 60.2471C385.325 58.8324 386.325 57.2279 387.05 55.4336C387.809 53.6048 388.188 51.7243 388.188 49.792ZM402.422 71.0127C402.422 74.9118 401.68 78.5693 400.196 81.9854C398.713 85.4014 396.677 88.3861 394.089 90.9395C391.535 93.4928 388.534 95.5114 385.083 96.9951C381.667 98.4788 378.009 99.2207 374.11 99.2207L367.02 99.1172V84.9873L374.007 85.0908C376.215 85.0908 378.096 84.7975 379.648 84.2109C381.201 83.6589 382.512 82.8825 383.582 81.8818C384.652 80.9157 385.497 79.7943 386.118 78.5176C386.774 77.2409 387.291 75.8952 387.671 74.4805C387.119 75.3776 386.325 76.1195 385.29 76.7061C384.255 77.2581 383.099 77.7067 381.822 78.0518C380.58 78.4313 379.269 78.6901 377.889 78.8281C376.543 78.9661 375.284 79.0352 374.11 79.0352C370.211 79.0352 366.536 78.3623 363.086 77.0166C359.67 75.6709 356.668 73.7559 354.08 71.2715C351.527 68.7526 349.508 65.6816 348.024 62.0586C346.541 58.4355 345.799 54.3467 345.799 49.792C345.799 45.6169 346.541 41.735 348.024 38.1465C349.508 34.5579 351.527 31.4525 354.08 28.8301C356.668 26.2077 359.67 24.1546 363.086 22.6709C366.536 21.1872 370.211 20.4453 374.11 20.4453C375.905 20.4453 377.682 20.6696 379.441 21.1182C381.201 21.5667 382.909 22.1878 384.565 22.9814C386.222 23.7751 387.792 24.7067 389.275 25.7764C390.794 26.846 392.208 28.002 393.52 29.2441L399.006 22.6709H402.422V71.0127ZM435.288 64.4395C435.84 64.612 436.392 64.7327 436.944 64.8018C437.496 64.8363 438.049 64.8535 438.601 64.8535C439.981 64.8535 441.309 64.6637 442.586 64.2842C443.863 63.9046 445.053 63.3698 446.157 62.6797C447.296 61.9551 448.297 61.0924 449.159 60.0918C450.056 59.0566 450.781 57.918 451.333 56.6758L461.685 67.0791C460.373 68.9424 458.855 70.6159 457.13 72.0996C455.439 73.5833 453.593 74.8428 451.592 75.8779C449.625 76.9131 447.537 77.6895 445.329 78.207C443.155 78.7591 440.912 79.0352 438.601 79.0352C434.701 79.0352 431.027 78.3105 427.576 76.8613C424.16 75.4121 421.158 73.3936 418.57 70.8057C416.017 68.2178 413.998 65.1468 412.515 61.5928C411.031 58.0042 410.289 54.0706 410.289 49.792C410.289 45.4098 411.031 41.4072 412.515 37.7842C413.998 34.1611 416.017 31.0729 418.57 28.5195C421.158 25.9661 424.16 23.9821 427.576 22.5674C431.027 21.1527 434.701 20.4453 438.601 20.4453C440.912 20.4453 443.173 20.7214 445.381 21.2734C447.589 21.8255 449.677 22.6191 451.644 23.6543C453.645 24.6895 455.508 25.9661 457.233 27.4844C458.959 28.9681 460.477 30.6416 461.788 32.5049L435.288 64.4395ZM442.534 35.2998C441.879 35.0583 441.223 34.903 440.567 34.834C439.946 34.765 439.291 34.7305 438.601 34.7305C436.668 34.7305 434.84 35.0928 433.114 35.8174C431.424 36.5075 429.94 37.5081 428.663 38.8193C427.421 40.1305 426.438 41.7178 425.713 43.5811C424.988 45.4098 424.626 47.4801 424.626 49.792C424.626 50.3096 424.643 50.8962 424.678 51.5518C424.747 52.2074 424.833 52.8802 424.937 53.5703C425.075 54.2259 425.23 54.8643 425.402 55.4854C425.575 56.1064 425.799 56.6585 426.075 57.1416L442.534 35.2998Z" fill="white"/>
</svg>
