<svg width="339" height="127" viewBox="0 0 339 127" fill="none" xmlns="http://www.w3.org/2000/svg">
<path d="M55.4775 98.5303C54.3389 99.5654 53.1139 100.549 51.8027 101.48C50.526 102.378 49.1803 103.171 47.7656 103.861C46.3509 104.517 44.8844 105.035 43.3662 105.414C41.8825 105.828 40.3643 106.035 38.8115 106.035C35.3955 106.035 32.1865 105.431 29.1846 104.224C26.1826 103.016 23.543 101.308 21.2656 99.0996C19.0228 96.8568 17.2458 94.1481 15.9346 90.9736C14.6579 87.7646 14.0195 84.1761 14.0195 80.208V49.5674H28.0977V80.208C28.0977 82.0713 28.3737 83.7448 28.9258 85.2285C29.5124 86.6777 30.2887 87.9027 31.2549 88.9033C32.221 89.904 33.3424 90.6631 34.6191 91.1807C35.9303 91.6982 37.3278 91.957 38.8115 91.957C40.2607 91.957 41.6237 91.6292 42.9004 90.9736C44.2116 90.2835 45.3503 89.3864 46.3164 88.2822C47.2826 87.1781 48.0417 85.9359 48.5938 84.5557C49.1458 83.141 49.4219 81.6917 49.4219 80.208V49.5674H63.5518V105H60.1357L55.4775 98.5303ZM127.938 105H124.522L119.036 97.3916C117.69 98.5993 116.258 99.738 114.74 100.808C113.257 101.843 111.687 102.757 110.03 103.551C108.374 104.31 106.666 104.914 104.906 105.362C103.181 105.811 101.421 106.035 99.627 106.035C95.7279 106.035 92.0531 105.311 88.6025 103.861C85.1865 102.378 82.1846 100.342 79.5967 97.7539C77.0433 95.1315 75.0247 92.0433 73.541 88.4893C72.0573 84.9007 71.3154 81.0016 71.3154 76.792C71.3154 72.6169 72.0573 68.735 73.541 65.1465C75.0247 61.5579 77.0433 58.4525 79.5967 55.8301C82.1846 53.2077 85.1865 51.1546 88.6025 49.6709C92.0531 48.1872 95.7279 47.4453 99.627 47.4453C100.869 47.4453 102.146 47.5488 103.457 47.7559C104.803 47.9629 106.097 48.3079 107.339 48.791C108.616 49.2396 109.806 49.8434 110.91 50.6025C112.014 51.3617 112.946 52.2933 113.705 53.3975V27.5186H127.938V105ZM113.705 76.792C113.705 74.8597 113.326 72.9964 112.566 71.2021C111.842 69.3734 110.841 67.7689 109.564 66.3887C108.288 64.974 106.787 63.8525 105.062 63.0244C103.371 62.1618 101.559 61.7305 99.627 61.7305C97.6947 61.7305 95.8659 62.0755 94.1406 62.7656C92.4499 63.4557 90.9661 64.4564 89.6895 65.7676C88.4473 67.0443 87.4639 68.6143 86.7393 70.4775C86.0146 72.3408 85.6523 74.4456 85.6523 76.792C85.6523 78.8278 86.0146 80.7601 86.7393 82.5889C87.4639 84.4176 88.4473 86.0221 89.6895 87.4023C90.9661 88.7826 92.4499 89.8695 94.1406 90.6631C95.8659 91.4567 97.6947 91.8535 99.627 91.8535C101.559 91.8535 103.371 91.4395 105.062 90.6113C106.787 89.7487 108.288 88.6273 109.564 87.2471C110.841 85.8324 111.842 84.2279 112.566 82.4336C113.326 80.6048 113.705 78.7243 113.705 76.792ZM160.805 91.4395C161.357 91.612 161.909 91.7327 162.461 91.8018C163.013 91.8363 163.565 91.8535 164.117 91.8535C165.497 91.8535 166.826 91.6637 168.103 91.2842C169.379 90.9046 170.57 90.3698 171.674 89.6797C172.812 88.9551 173.813 88.0924 174.676 87.0918C175.573 86.0566 176.298 84.918 176.85 83.6758L187.201 94.0791C185.89 95.9424 184.372 97.6159 182.646 99.0996C180.956 100.583 179.11 101.843 177.108 102.878C175.142 103.913 173.054 104.689 170.846 105.207C168.672 105.759 166.429 106.035 164.117 106.035C160.218 106.035 156.543 105.311 153.093 103.861C149.677 102.412 146.675 100.394 144.087 97.8057C141.534 95.2178 139.515 92.1468 138.031 88.5928C136.548 85.0042 135.806 81.0706 135.806 76.792C135.806 72.4098 136.548 68.4072 138.031 64.7842C139.515 61.1611 141.534 58.0729 144.087 55.5195C146.675 52.9661 149.677 50.9821 153.093 49.5674C156.543 48.1527 160.218 47.4453 164.117 47.4453C166.429 47.4453 168.689 47.7214 170.897 48.2734C173.106 48.8255 175.193 49.6191 177.16 50.6543C179.161 51.6895 181.025 52.9661 182.75 54.4844C184.475 55.9681 185.993 57.6416 187.305 59.5049L160.805 91.4395ZM168.051 62.2998C167.395 62.0583 166.74 61.903 166.084 61.834C165.463 61.765 164.807 61.7305 164.117 61.7305C162.185 61.7305 160.356 62.0928 158.631 62.8174C156.94 63.5075 155.456 64.5081 154.18 65.8193C152.938 67.1305 151.954 68.7178 151.229 70.5811C150.505 72.4098 150.143 74.4801 150.143 76.792C150.143 77.3096 150.16 77.8962 150.194 78.5518C150.263 79.2074 150.35 79.8802 150.453 80.5703C150.591 81.2259 150.746 81.8643 150.919 82.4854C151.091 83.1064 151.316 83.6585 151.592 84.1416L168.051 62.2998ZM264.941 105H250.863V69.8047C250.863 68.8385 250.674 67.9242 250.294 67.0615C249.949 66.1989 249.449 65.4398 248.793 64.7842C248.137 64.1286 247.378 63.6283 246.516 63.2832C245.653 62.9036 244.739 62.7139 243.772 62.7139C242.806 62.7139 241.892 62.9036 241.029 63.2832C240.201 63.6283 239.459 64.1286 238.804 64.7842C238.183 65.4398 237.682 66.1989 237.303 67.0615C236.958 67.9242 236.785 68.8385 236.785 69.8047V105H222.655V69.8047C222.655 68.8385 222.465 67.9242 222.086 67.0615C221.741 66.1989 221.241 65.4398 220.585 64.7842C219.929 64.1286 219.17 63.6283 218.308 63.2832C217.445 62.9036 216.531 62.7139 215.564 62.7139C214.598 62.7139 213.684 62.9036 212.821 63.2832C211.993 63.6283 211.251 64.1286 210.596 64.7842C209.975 65.4398 209.474 66.1989 209.095 67.0615C208.75 67.9242 208.577 68.8385 208.577 69.8047V105H194.447V49.5674H197.863L201.693 53.8115C203.66 52.1553 205.817 50.8786 208.163 49.9814C210.544 49.0498 213.011 48.584 215.564 48.584C218.152 48.584 220.671 49.0671 223.121 50.0332C225.605 50.9993 227.779 52.6729 229.643 55.0537C230.505 53.8805 231.489 52.8799 232.593 52.0518C233.697 51.2236 234.853 50.5508 236.061 50.0332C237.303 49.5156 238.579 49.1533 239.891 48.9463C241.202 48.7048 242.496 48.584 243.772 48.584C246.705 48.584 249.449 49.1361 252.002 50.2402C254.59 51.3444 256.833 52.8626 258.73 54.7949C260.663 56.6927 262.181 58.9355 263.285 61.5234C264.389 64.1113 264.941 66.8717 264.941 69.8047V105ZM288.646 126.117V111.884L296.514 111.987C297.894 111.987 299.222 111.763 300.499 111.314C301.776 110.866 302.949 110.245 304.019 109.451C305.123 108.658 306.089 107.709 306.917 106.604C307.745 105.535 308.418 104.362 308.936 103.085C307.383 103.741 305.796 104.396 304.174 105.052C302.587 105.707 300.982 106.035 299.36 106.035C295.944 106.035 292.735 105.431 289.733 104.224C286.731 103.016 284.092 101.308 281.814 99.0996C279.572 96.8568 277.795 94.1481 276.483 90.9736C275.207 87.7646 274.568 84.1761 274.568 80.208V49.5674H288.646V80.208C288.646 82.1748 288.923 83.9001 289.475 85.3838C290.061 86.833 290.838 88.0579 291.804 89.0586C292.77 90.0247 293.891 90.7493 295.168 91.2324C296.479 91.7155 297.877 91.957 299.36 91.957C300.81 91.957 302.173 91.6292 303.449 90.9736C304.76 90.2835 305.899 89.3864 306.865 88.2822C307.831 87.1781 308.59 85.9359 309.143 84.5557C309.695 83.141 309.971 81.6917 309.971 80.208V49.5674H324.204V98.0127C324.17 101.912 323.41 105.569 321.927 108.985C320.443 112.401 318.407 115.386 315.819 117.939C313.266 120.493 310.281 122.511 306.865 123.995C303.449 125.479 299.792 126.221 295.893 126.221L288.646 126.117Z" fill="white"/>
</svg>
