<svg width="738" height="100" viewBox="0 0 738 100" fill="none" xmlns="http://www.w3.org/2000/svg">
<path d="M57.5205 49.792C57.5205 53.9326 56.7786 57.7972 55.2949 61.3857C53.8112 64.9398 51.7926 68.028 49.2393 70.6504C46.6859 73.2383 43.6839 75.2913 40.2334 76.8096C36.8174 78.2933 33.1426 79.0352 29.209 79.0352C25.3099 79.0352 21.6351 78.2933 18.1846 76.8096C14.7686 75.2913 11.7666 73.2383 9.17871 70.6504C6.62533 68.028 4.60677 64.9398 3.12305 61.3857C1.63932 57.7972 0.897461 53.9326 0.897461 49.792C0.897461 45.5824 1.63932 41.6833 3.12305 38.0947C4.60677 34.5062 6.62533 31.418 9.17871 28.8301C11.7666 26.2077 14.7686 24.1546 18.1846 22.6709C21.6351 21.1872 25.3099 20.4453 29.209 20.4453C33.1426 20.4453 36.8174 21.1527 40.2334 22.5674C43.6839 23.9476 46.6859 25.9316 49.2393 28.5195C51.7926 31.0729 53.8112 34.1611 55.2949 37.7842C56.7786 41.3727 57.5205 45.3753 57.5205 49.792ZM43.2871 49.792C43.2871 47.5146 42.9076 45.4616 42.1484 43.6328C41.4238 41.7695 40.4232 40.1823 39.1465 38.8711C37.8698 37.5254 36.3688 36.5075 34.6436 35.8174C32.9528 35.0928 31.1413 34.7305 29.209 34.7305C27.2767 34.7305 25.4479 35.0928 23.7227 35.8174C22.0319 36.5075 20.5482 37.5254 19.2715 38.8711C18.0293 40.1823 17.0459 41.7695 16.3213 43.6328C15.5967 45.4616 15.2344 47.5146 15.2344 49.792C15.2344 51.9313 15.5967 53.9154 16.3213 55.7441C17.0459 57.5729 18.0293 59.1602 19.2715 60.5059C20.5482 61.8516 22.0319 62.9212 23.7227 63.7148C25.4479 64.474 27.2767 64.8535 29.209 64.8535C31.1413 64.8535 32.9528 64.4912 34.6436 63.7666C36.3688 63.042 37.8698 62.0241 39.1465 60.7129C40.4232 59.4017 41.4238 57.8145 42.1484 55.9512C42.9076 54.0879 43.2871 52.0348 43.2871 49.792ZM79.5693 99.1172H65.3359V22.5674H68.752L74.3936 29.2441C75.6702 28.0365 77.0677 26.8978 78.5859 25.8281C80.1042 24.7585 81.6742 23.8441 83.2959 23.085C84.9521 22.2913 86.6602 21.6702 88.4199 21.2217C90.1797 20.7731 91.9567 20.5488 93.751 20.5488C97.6501 20.5488 101.308 21.2562 104.724 22.6709C108.174 24.0511 111.176 26.0179 113.729 28.5713C116.317 31.1247 118.353 34.2129 119.837 37.8359C121.321 41.4245 122.062 45.4098 122.062 49.792C122.062 54.3467 121.321 58.4528 119.837 62.1104C118.353 65.7334 116.317 68.8216 113.729 71.375C111.176 73.8939 108.174 75.8262 104.724 77.1719C101.308 78.5176 97.6501 79.1904 93.751 79.1904C92.5088 79.1904 91.2666 79.0524 90.0244 78.7764C88.8167 78.5003 87.609 78.138 86.4014 77.6895C85.2282 77.2064 84.055 76.6715 82.8818 76.085C81.7432 75.4984 80.639 74.8945 79.5693 74.2734V99.1172ZM107.881 49.792C107.881 47.4456 107.501 45.3408 106.742 43.4775C106.018 41.6143 105.017 40.0443 103.74 38.7676C102.464 37.4564 100.963 36.4557 99.2373 35.7656C97.512 35.0755 95.6833 34.7305 93.751 34.7305C91.8187 34.7305 89.9899 35.0755 88.2646 35.7656C86.5739 36.4557 85.0902 37.4564 83.8135 38.7676C82.5368 40.0443 81.5189 41.6143 80.7598 43.4775C80.0352 45.3408 79.6729 47.4456 79.6729 49.792C79.6729 52.0348 80.0352 54.0879 80.7598 55.9512C81.5189 57.8145 82.5368 59.4017 83.8135 60.7129C85.0902 62.0241 86.5739 63.042 88.2646 63.7666C89.9899 64.4912 91.8187 64.8535 93.751 64.8535C95.6833 64.8535 97.512 64.4912 99.2373 63.7666C100.963 63.042 102.464 62.0241 103.74 60.7129C105.017 59.4017 106.018 57.8145 106.742 55.9512C107.501 54.0879 107.881 52.0348 107.881 49.792ZM151.979 64.4395C152.531 64.612 153.083 64.7327 153.635 64.8018C154.187 64.8363 154.739 64.8535 155.291 64.8535C156.671 64.8535 158 64.6637 159.276 64.2842C160.553 63.9046 161.743 63.3698 162.848 62.6797C163.986 61.9551 164.987 61.0924 165.85 60.0918C166.747 59.0566 167.471 57.918 168.023 56.6758L178.375 67.0791C177.064 68.9424 175.546 70.6159 173.82 72.0996C172.13 73.5833 170.284 74.8428 168.282 75.8779C166.315 76.9131 164.228 77.6895 162.02 78.207C159.846 78.7591 157.603 79.0352 155.291 79.0352C151.392 79.0352 147.717 78.3105 144.267 76.8613C140.851 75.4121 137.849 73.3936 135.261 70.8057C132.707 68.2178 130.689 65.1468 129.205 61.5928C127.721 58.0042 126.979 54.0706 126.979 49.792C126.979 45.4098 127.721 41.4072 129.205 37.7842C130.689 34.1611 132.707 31.0729 135.261 28.5195C137.849 25.9661 140.851 23.9821 144.267 22.5674C147.717 21.1527 151.392 20.4453 155.291 20.4453C157.603 20.4453 159.863 20.7214 162.071 21.2734C164.28 21.8255 166.367 22.6191 168.334 23.6543C170.335 24.6895 172.199 25.9661 173.924 27.4844C175.649 28.9681 177.167 30.6416 178.479 32.5049L151.979 64.4395ZM159.225 35.2998C158.569 35.0583 157.913 34.903 157.258 34.834C156.637 34.765 155.981 34.7305 155.291 34.7305C153.359 34.7305 151.53 35.0928 149.805 35.8174C148.114 36.5075 146.63 37.5081 145.354 38.8193C144.111 40.1305 143.128 41.7178 142.403 43.5811C141.679 45.4098 141.316 47.4801 141.316 49.792C141.316 50.3096 141.334 50.8962 141.368 51.5518C141.437 52.2074 141.523 52.8802 141.627 53.5703C141.765 54.2259 141.92 54.8643 142.093 55.4854C142.265 56.1064 142.49 56.6585 142.766 57.1416L159.225 35.2998ZM199.751 78H185.621V22.5674H189.037L193.695 27.9502C195.973 25.8799 198.543 24.2926 201.407 23.1885C204.306 22.0498 207.325 21.4805 210.465 21.4805C213.846 21.4805 217.038 22.1361 220.04 23.4473C223.042 24.724 225.664 26.501 227.907 28.7783C230.15 31.0212 231.91 33.6608 233.187 36.6973C234.498 39.6992 235.153 42.9082 235.153 46.3242V78H221.023V46.3242C221.023 44.875 220.747 43.512 220.195 42.2354C219.643 40.9242 218.884 39.7855 217.918 38.8193C216.952 37.8532 215.83 37.0941 214.554 36.542C213.277 35.9899 211.914 35.7139 210.465 35.7139C208.981 35.7139 207.584 35.9899 206.272 36.542C204.961 37.0941 203.823 37.8532 202.856 38.8193C201.89 39.7855 201.131 40.9242 200.579 42.2354C200.027 43.512 199.751 44.875 199.751 46.3242V78ZM293.691 33.5918L283.34 43.9951C282.822 42.5459 282.115 41.252 281.218 40.1133C280.321 38.9401 279.303 37.9567 278.164 37.1631C277.06 36.3695 275.852 35.7656 274.541 35.3516C273.23 34.9375 271.884 34.7305 270.504 34.7305C268.572 34.7305 266.743 35.1273 265.018 35.9209C263.327 36.7145 261.843 37.8359 260.566 39.2852C259.324 40.6999 258.341 42.3906 257.616 44.3574C256.892 46.3242 256.529 48.498 256.529 50.8789C256.529 52.8112 256.892 54.6227 257.616 56.3135C258.341 58.0042 259.324 59.488 260.566 60.7646C261.843 62.0413 263.327 63.042 265.018 63.7666C266.743 64.4912 268.572 64.8535 270.504 64.8535C271.884 64.8535 273.213 64.6637 274.489 64.2842C275.766 63.9046 276.956 63.3698 278.061 62.6797C279.199 61.9551 280.2 61.0924 281.062 60.0918C281.96 59.0566 282.684 57.918 283.236 56.6758L293.588 67.0791C292.277 68.9424 290.758 70.6159 289.033 72.0996C287.342 73.5833 285.496 74.8428 283.495 75.8779C281.528 76.9131 279.441 77.6895 277.232 78.207C275.059 78.7591 272.816 79.0352 270.504 79.0352C266.605 79.0352 262.93 78.3105 259.479 76.8613C256.063 75.3776 253.062 73.359 250.474 70.8057C247.92 68.2523 245.902 65.2676 244.418 61.8516C242.934 58.4355 242.192 54.778 242.192 50.8789C242.192 46.6348 242.934 42.6667 244.418 38.9746C245.902 35.2826 247.92 32.0736 250.474 29.3477C253.062 26.5872 256.063 24.4134 259.479 22.8262C262.93 21.2389 266.605 20.4453 270.504 20.4453C272.816 20.4453 275.076 20.7386 277.284 21.3252C279.527 21.9118 281.649 22.7744 283.65 23.9131C285.686 25.0173 287.549 26.3802 289.24 28.002C290.965 29.6237 292.449 31.487 293.691 33.5918ZM314.86 78H300.627V0.518555H314.86V78ZM379.351 78H375.935L370.448 70.3916C369.103 71.5993 367.671 72.738 366.152 73.8076C364.669 74.8428 363.099 75.7572 361.442 76.5508C359.786 77.3099 358.078 77.9137 356.318 78.3623C354.593 78.8109 352.833 79.0352 351.039 79.0352C347.14 79.0352 343.465 78.3796 340.015 77.0684C336.599 75.7572 333.597 73.8594 331.009 71.375C328.455 68.8561 326.437 65.7852 324.953 62.1621C323.469 58.5391 322.728 54.4157 322.728 49.792C322.728 45.4788 323.469 41.528 324.953 37.9395C326.437 34.3164 328.455 31.2109 331.009 28.623C333.597 26.0352 336.599 24.0339 340.015 22.6191C343.465 21.1699 347.14 20.4453 351.039 20.4453C352.833 20.4453 354.61 20.6696 356.37 21.1182C358.13 21.5667 359.838 22.1878 361.494 22.9814C363.15 23.7751 364.72 24.7067 366.204 25.7764C367.722 26.846 369.137 28.002 370.448 29.2441L375.935 22.6709H379.351V78ZM365.117 49.792C365.117 47.8597 364.738 45.9964 363.979 44.2021C363.254 42.3734 362.253 40.7689 360.977 39.3887C359.7 37.974 358.199 36.8525 356.474 36.0244C354.783 35.1618 352.971 34.7305 351.039 34.7305C349.107 34.7305 347.278 35.0583 345.553 35.7139C343.862 36.3695 342.378 37.3356 341.102 38.6123C339.859 39.889 338.876 41.4762 338.151 43.374C337.427 45.2373 337.064 47.3766 337.064 49.792C337.064 52.2074 337.427 54.3639 338.151 56.2617C338.876 58.125 339.859 59.695 341.102 60.9717C342.378 62.2484 343.862 63.2145 345.553 63.8701C347.278 64.5257 349.107 64.8535 351.039 64.8535C352.971 64.8535 354.783 64.4395 356.474 63.6113C358.199 62.7487 359.7 61.6273 360.977 60.2471C362.253 58.8324 363.254 57.2279 363.979 55.4336C364.738 53.6048 365.117 51.7243 365.117 49.792ZM420.602 78H388.305V63.9219H420.602C421.568 63.9219 422.396 63.5768 423.086 62.8867C423.776 62.1966 424.121 61.3685 424.121 60.4023C424.121 59.4017 423.776 58.7461 423.086 58.4355C422.396 58.125 421.568 57.9697 420.602 57.9697H405.902C403.452 57.9697 401.158 57.5039 399.019 56.5723C396.879 55.6406 395.016 54.3812 393.429 52.7939C391.841 51.1722 390.582 49.2917 389.65 47.1523C388.753 45.013 388.305 42.7184 388.305 40.2686C388.305 37.8187 388.753 35.5241 389.65 33.3848C390.582 31.2454 391.841 29.3822 393.429 27.7949C395.016 26.2077 396.879 24.9655 399.019 24.0684C401.158 23.1367 403.452 22.6709 405.902 22.6709H434.524V36.749H405.902C404.936 36.749 404.108 37.0941 403.418 37.7842C402.728 38.4743 402.383 39.3024 402.383 40.2686C402.383 41.2692 402.728 42.1318 403.418 42.8564C404.108 43.5465 404.936 43.8916 405.902 43.8916H420.602C423.017 43.8916 425.294 44.3057 427.434 45.1338C429.573 45.9274 431.436 47.0488 433.023 48.498C434.611 49.9473 435.87 51.6898 436.802 53.7256C437.733 55.7614 438.199 57.987 438.199 60.4023C438.199 62.8522 437.733 65.1468 436.802 67.2861C435.87 69.391 434.611 71.2542 433.023 72.876C431.436 74.4632 429.573 75.7227 427.434 76.6543C425.294 77.5514 423.017 78 420.602 78ZM476.189 78H443.893V63.9219H476.189C477.156 63.9219 477.984 63.5768 478.674 62.8867C479.364 62.1966 479.709 61.3685 479.709 60.4023C479.709 59.4017 479.364 58.7461 478.674 58.4355C477.984 58.125 477.156 57.9697 476.189 57.9697H461.49C459.04 57.9697 456.746 57.5039 454.606 56.5723C452.467 55.6406 450.604 54.3812 449.017 52.7939C447.429 51.1722 446.17 49.2917 445.238 47.1523C444.341 45.013 443.893 42.7184 443.893 40.2686C443.893 37.8187 444.341 35.5241 445.238 33.3848C446.17 31.2454 447.429 29.3822 449.017 27.7949C450.604 26.2077 452.467 24.9655 454.606 24.0684C456.746 23.1367 459.04 22.6709 461.49 22.6709H490.112V36.749H461.49C460.524 36.749 459.696 37.0941 459.006 37.7842C458.316 38.4743 457.971 39.3024 457.971 40.2686C457.971 41.2692 458.316 42.1318 459.006 42.8564C459.696 43.5465 460.524 43.8916 461.49 43.8916H476.189C478.605 43.8916 480.882 44.3057 483.021 45.1338C485.161 45.9274 487.024 47.0488 488.611 48.498C490.199 49.9473 491.458 51.6898 492.39 53.7256C493.321 55.7614 493.787 57.987 493.787 60.4023C493.787 62.8522 493.321 65.1468 492.39 67.2861C491.458 69.391 490.199 71.2542 488.611 72.876C487.024 74.4632 485.161 75.7227 483.021 76.6543C480.882 77.5514 478.605 78 476.189 78ZM515.474 78H501.344V22.5674H504.76L509.418 29.1406C511.695 27.0703 514.283 25.4831 517.182 24.3789C520.08 23.2402 523.082 22.6709 526.188 22.6709H538.661V36.749H526.188C524.704 36.749 523.306 37.0251 521.995 37.5771C520.684 38.1292 519.545 38.8883 518.579 39.8545C517.613 40.8206 516.854 41.9593 516.302 43.2705C515.75 44.5817 515.474 45.9792 515.474 47.4629V78ZM597.769 49.792C597.769 53.9326 597.027 57.7972 595.543 61.3857C594.059 64.9398 592.041 68.028 589.487 70.6504C586.934 73.2383 583.932 75.2913 580.481 76.8096C577.065 78.2933 573.391 79.0352 569.457 79.0352C565.558 79.0352 561.883 78.2933 558.433 76.8096C555.017 75.2913 552.015 73.2383 549.427 70.6504C546.873 68.028 544.855 64.9398 543.371 61.3857C541.887 57.7972 541.146 53.9326 541.146 49.792C541.146 45.5824 541.887 41.6833 543.371 38.0947C544.855 34.5062 546.873 31.418 549.427 28.8301C552.015 26.2077 555.017 24.1546 558.433 22.6709C561.883 21.1872 565.558 20.4453 569.457 20.4453C573.391 20.4453 577.065 21.1527 580.481 22.5674C583.932 23.9476 586.934 25.9316 589.487 28.5195C592.041 31.0729 594.059 34.1611 595.543 37.7842C597.027 41.3727 597.769 45.3753 597.769 49.792ZM583.535 49.792C583.535 47.5146 583.156 45.4616 582.396 43.6328C581.672 41.7695 580.671 40.1823 579.395 38.8711C578.118 37.5254 576.617 36.5075 574.892 35.8174C573.201 35.0928 571.389 34.7305 569.457 34.7305C567.525 34.7305 565.696 35.0928 563.971 35.8174C562.28 36.5075 560.796 37.5254 559.52 38.8711C558.277 40.1823 557.294 41.7695 556.569 43.6328C555.845 45.4616 555.482 47.5146 555.482 49.792C555.482 51.9313 555.845 53.9154 556.569 55.7441C557.294 57.5729 558.277 59.1602 559.52 60.5059C560.796 61.8516 562.28 62.9212 563.971 63.7148C565.696 64.474 567.525 64.8535 569.457 64.8535C571.389 64.8535 573.201 64.4912 574.892 63.7666C576.617 63.042 578.118 62.0241 579.395 60.7129C580.671 59.4017 581.672 57.8145 582.396 55.9512C583.156 54.0879 583.535 52.0348 583.535 49.792ZM659.153 49.792C659.153 53.9326 658.411 57.7972 656.928 61.3857C655.444 64.9398 653.425 68.028 650.872 70.6504C648.319 73.2383 645.317 75.2913 641.866 76.8096C638.45 78.2933 634.775 79.0352 630.842 79.0352C626.943 79.0352 623.268 78.2933 619.817 76.8096C616.401 75.2913 613.399 73.2383 610.812 70.6504C608.258 68.028 606.24 64.9398 604.756 61.3857C603.272 57.7972 602.53 53.9326 602.53 49.792C602.53 45.5824 603.272 41.6833 604.756 38.0947C606.24 34.5062 608.258 31.418 610.812 28.8301C613.399 26.2077 616.401 24.1546 619.817 22.6709C623.268 21.1872 626.943 20.4453 630.842 20.4453C634.775 20.4453 638.45 21.1527 641.866 22.5674C645.317 23.9476 648.319 25.9316 650.872 28.5195C653.425 31.0729 655.444 34.1611 656.928 37.7842C658.411 41.3727 659.153 45.3753 659.153 49.792ZM644.92 49.792C644.92 47.5146 644.54 45.4616 643.781 43.6328C643.057 41.7695 642.056 40.1823 640.779 38.8711C639.503 37.5254 638.002 36.5075 636.276 35.8174C634.586 35.0928 632.774 34.7305 630.842 34.7305C628.91 34.7305 627.081 35.0928 625.355 35.8174C623.665 36.5075 622.181 37.5254 620.904 38.8711C619.662 40.1823 618.679 41.7695 617.954 43.6328C617.229 45.4616 616.867 47.5146 616.867 49.792C616.867 51.9313 617.229 53.9154 617.954 55.7441C618.679 57.5729 619.662 59.1602 620.904 60.5059C622.181 61.8516 623.665 62.9212 625.355 63.7148C627.081 64.474 628.91 64.8535 630.842 64.8535C632.774 64.8535 634.586 64.4912 636.276 63.7666C638.002 63.042 639.503 62.0241 640.779 60.7129C642.056 59.4017 643.057 57.8145 643.781 55.9512C644.54 54.0879 644.92 52.0348 644.92 49.792ZM737.463 78H723.385V42.8047C723.385 41.8385 723.195 40.9242 722.815 40.0615C722.47 39.1989 721.97 38.4398 721.314 37.7842C720.659 37.1286 719.9 36.6283 719.037 36.2832C718.174 35.9036 717.26 35.7139 716.294 35.7139C715.328 35.7139 714.413 35.9036 713.551 36.2832C712.723 36.6283 711.981 37.1286 711.325 37.7842C710.704 38.4398 710.204 39.1989 709.824 40.0615C709.479 40.9242 709.307 41.8385 709.307 42.8047V78H695.177V42.8047C695.177 41.8385 694.987 40.9242 694.607 40.0615C694.262 39.1989 693.762 38.4398 693.106 37.7842C692.451 37.1286 691.692 36.6283 690.829 36.2832C689.966 35.9036 689.052 35.7139 688.086 35.7139C687.12 35.7139 686.205 35.9036 685.343 36.2832C684.515 36.6283 683.773 37.1286 683.117 37.7842C682.496 38.4398 681.996 39.1989 681.616 40.0615C681.271 40.9242 681.099 41.8385 681.099 42.8047V78H666.969V22.5674H670.385L674.215 26.8115C676.182 25.1553 678.338 23.8786 680.685 22.9814C683.065 22.0498 685.533 21.584 688.086 21.584C690.674 21.584 693.193 22.0671 695.643 23.0332C698.127 23.9993 700.301 25.6729 702.164 28.0537C703.027 26.8805 704.01 25.8799 705.114 25.0518C706.218 24.2236 707.374 23.5508 708.582 23.0332C709.824 22.5156 711.101 22.1533 712.412 21.9463C713.723 21.7048 715.017 21.584 716.294 21.584C719.227 21.584 721.97 22.1361 724.523 23.2402C727.111 24.3444 729.354 25.8626 731.252 27.7949C733.184 29.6927 734.702 31.9355 735.807 34.5234C736.911 37.1113 737.463 39.8717 737.463 42.8047V78Z" fill="#FFFCFC"/>
</svg>
