<svg width="259" height="132" viewBox="0 0 259 132" fill="none" xmlns="http://www.w3.org/2000/svg">
<path d="M21.8701 105L0.75293 49.5674H16.8496L28.9609 84.1416L41.0205 49.5674H57.1689L36.0518 105H21.8701ZM79.2178 34.5059C79.2178 35.8171 78.959 37.042 78.4414 38.1807C77.9583 39.3193 77.2855 40.32 76.4229 41.1826C75.5602 42.0107 74.5423 42.6836 73.3691 43.2012C72.2305 43.6842 71.0055 43.9258 69.6943 43.9258C68.3831 43.9258 67.141 43.6842 65.9678 43.2012C64.8291 42.6836 63.8285 42.0107 62.9658 41.1826C62.1377 40.32 61.4648 39.3193 60.9473 38.1807C60.4642 37.042 60.2227 35.8171 60.2227 34.5059C60.2227 33.2292 60.4642 32.0215 60.9473 30.8828C61.4648 29.7096 62.1377 28.709 62.9658 27.8809C63.8285 27.0182 64.8291 26.3454 65.9678 25.8623C67.141 25.3447 68.3831 25.0859 69.6943 25.0859C71.0055 25.0859 72.2305 25.3447 73.3691 25.8623C74.5423 26.3454 75.5602 27.0182 76.4229 27.8809C77.2855 28.709 77.9583 29.7096 78.4414 30.8828C78.959 32.0215 79.2178 33.2292 79.2178 34.5059ZM76.7852 105H62.5518V49.5674H76.7852V105ZM143.087 76.792C143.087 81.1396 142.345 85.1077 140.861 88.6963C139.378 92.2848 137.359 95.373 134.806 97.9609C132.252 100.514 129.25 102.498 125.8 103.913C122.384 105.328 118.709 106.035 114.775 106.035C110.876 106.035 107.201 105.311 103.751 103.861C100.335 102.412 97.333 100.394 94.7451 97.8057C92.1917 95.2178 90.1732 92.1468 88.6895 88.5928C87.2057 85.0042 86.4639 81.0706 86.4639 76.792V27.5186H100.646V53.3975C101.405 52.4313 102.319 51.5687 103.389 50.8096C104.493 50.0505 105.666 49.4294 106.908 48.9463C108.185 48.4632 109.496 48.1009 110.842 47.8594C112.188 47.5833 113.499 47.4453 114.775 47.4453C118.709 47.4453 122.384 48.1872 125.8 49.6709C129.25 51.1201 132.252 53.1559 134.806 55.7783C137.359 58.4007 139.378 61.5062 140.861 65.0947C142.345 68.6488 143.087 72.5479 143.087 76.792ZM128.854 76.792C128.854 74.6527 128.474 72.6686 127.715 70.8398C126.99 68.9766 125.99 67.3721 124.713 66.0264C123.436 64.6807 121.935 63.6283 120.21 62.8691C118.519 62.11 116.708 61.7305 114.775 61.7305C112.843 61.7305 111.014 62.1618 109.289 63.0244C107.598 63.8525 106.115 64.974 104.838 66.3887C103.561 67.7689 102.561 69.3734 101.836 71.2021C101.111 72.9964 100.749 74.8597 100.749 76.792C100.749 78.9313 101.111 80.9154 101.836 82.7441C102.561 84.5729 103.561 86.1602 104.838 87.5059C106.115 88.8516 107.598 89.9212 109.289 90.7148C111.014 91.474 112.843 91.8535 114.775 91.8535C116.708 91.8535 118.519 91.474 120.21 90.7148C121.935 89.9212 123.436 88.8516 124.713 87.5059C125.99 86.1602 126.99 84.5729 127.715 82.7441C128.474 80.9154 128.854 78.9313 128.854 76.792ZM167.62 34.5059C167.62 35.8171 167.361 37.042 166.844 38.1807C166.361 39.3193 165.688 40.32 164.825 41.1826C163.963 42.0107 162.945 42.6836 161.771 43.2012C160.633 43.6842 159.408 43.9258 158.097 43.9258C156.785 43.9258 155.543 43.6842 154.37 43.2012C153.231 42.6836 152.231 42.0107 151.368 41.1826C150.54 40.32 149.867 39.3193 149.35 38.1807C148.867 37.042 148.625 35.8171 148.625 34.5059C148.625 33.2292 148.867 32.0215 149.35 30.8828C149.867 29.7096 150.54 28.709 151.368 27.8809C152.231 27.0182 153.231 26.3454 154.37 25.8623C155.543 25.3447 156.785 25.0859 158.097 25.0859C159.408 25.0859 160.633 25.3447 161.771 25.8623C162.945 26.3454 163.963 27.0182 164.825 27.8809C165.688 28.709 166.361 29.7096 166.844 30.8828C167.361 32.0215 167.62 33.2292 167.62 34.5059ZM165.188 105H150.954V49.5674H165.188V105ZM190.135 105H176.005V49.5674H179.421L184.079 54.9502C186.356 52.8799 188.927 51.2926 191.791 50.1885C194.689 49.0498 197.709 48.4805 200.849 48.4805C204.23 48.4805 207.422 49.1361 210.424 50.4473C213.426 51.724 216.048 53.501 218.291 55.7783C220.534 58.0212 222.294 60.6608 223.57 63.6973C224.882 66.6992 225.537 69.9082 225.537 73.3242V105H211.407V73.3242C211.407 71.875 211.131 70.512 210.579 69.2354C210.027 67.9242 209.268 66.7855 208.302 65.8193C207.336 64.8532 206.214 64.0941 204.938 63.542C203.661 62.9899 202.298 62.7139 200.849 62.7139C199.365 62.7139 197.967 62.9899 196.656 63.542C195.345 64.0941 194.206 64.8532 193.24 65.8193C192.274 66.7855 191.515 67.9242 190.963 69.2354C190.411 70.512 190.135 71.875 190.135 73.3242V105Z" fill="white"/>
<path d="M253.799 99.7207C253.799 100.963 253.575 102.136 253.126 103.24C252.677 104.31 252.056 105.242 251.263 106.035C250.469 106.829 249.537 107.45 248.468 107.898C247.398 108.382 246.242 108.623 245 108.623C243.792 108.623 242.636 108.382 241.532 107.898C240.463 107.45 239.514 106.829 238.686 106.035C237.892 105.242 237.254 104.31 236.771 103.24C236.322 102.136 236.098 100.963 236.098 99.7207C236.098 98.513 236.322 97.3743 236.771 96.3047C237.254 95.235 237.892 94.3034 238.686 93.5098C239.514 92.7161 240.463 92.0951 241.532 91.6465C242.636 91.1634 243.792 90.9219 245 90.9219C246.242 90.9219 247.398 91.1634 248.468 91.6465C249.537 92.0951 250.469 92.7161 251.263 93.5098C252.056 94.3034 252.677 95.235 253.126 96.3047C253.575 97.3743 253.799 98.513 253.799 99.7207Z" fill="#E7895C"/>
</svg>
